<svg id="visual" viewBox="0 0 900 1300" width="900" height="1300" xmlns="http://www.w3.org/2000/svg" xmlns:xlink="http://www.w3.org/1999/xlink" version="1.1"><rect x="0" y="0" width="900" height="1300" fill="#27292b"></rect><path d="M0 567L21.5 555.2C43 543.3 86 519.7 128.8 484.3C171.7 449 214.3 402 257.2 372.8C300 343.7 343 332.3 385.8 380.5C428.7 428.7 471.3 536.3 514.2 536.5C557 536.7 600 429.3 642.8 430C685.7 430.7 728.3 539.3 771.2 551.5C814 563.7 857 479.3 878.5 437.2L900 395L900 1301L878.5 1301C857 1301 814 1301 771.2 1301C728.3 1301 685.7 1301 642.8 1301C600 1301 557 1301 514.2 1301C471.3 1301 428.7 1301 385.8 1301C343 1301 300 1301 257.2 1301C214.3 1301 171.7 1301 128.8 1301C86 1301 43 1301 21.5 1301L0 1301Z" fill="#8a2be2"></path><path d="M0 545L21.5 582.5C43 620 86 695 128.8 720.8C171.7 746.7 214.3 723.3 257.2 694.5C300 665.7 343 631.3 385.8 636.2C428.7 641 471.3 685 514.2 692C557 699 600 669 642.8 645.7C685.7 622.3 728.3 605.7 771.2 569.7C814 533.7 857 478.3 878.5 450.7L900 423L900 1301L878.5 1301C857 1301 814 1301 771.2 1301C728.3 1301 685.7 1301 642.8 1301C600 1301 557 1301 514.2 1301C471.3 1301 428.7 1301 385.8 1301C343 1301 300 1301 257.2 1301C214.3 1301 171.7 1301 128.8 1301C86 1301 43 1301 21.5 1301L0 1301Z" fill="#7643e5"></path><path d="M0 737L21.5 760.3C43 783.7 86 830.3 128.8 846.8C171.7 863.3 214.3 849.7 257.2 844.5C300 839.3 343 842.7 385.8 832.8C428.7 823 471.3 800 514.2 806.3C557 812.7 600 848.3 642.8 866.8C685.7 885.3 728.3 886.7 771.2 886C814 885.3 857 882.7 878.5 881.3L900 880L900 1301L878.5 1301C857 1301 814 1301 771.2 1301C728.3 1301 685.7 1301 642.8 1301C600 1301 557 1301 514.2 1301C471.3 1301 428.7 1301 385.8 1301C343 1301 300 1301 257.2 1301C214.3 1301 171.7 1301 128.8 1301C86 1301 43 1301 21.5 1301L0 1301Z" fill="#6253e6"></path><path d="M0 999L21.5 980.3C43 961.7 86 924.3 128.8 930.3C171.7 936.3 214.3 985.7 257.2 993.2C300 1000.7 343 966.3 385.8 945.5C428.7 924.7 471.3 917.3 514.2 897.8C557 878.3 600 846.7 642.8 828.3C685.7 810 728.3 805 771.2 832.5C814 860 857 920 878.5 950L900 980L900 1301L878.5 1301C857 1301 814 1301 771.2 1301C728.3 1301 685.7 1301 642.8 1301C600 1301 557 1301 514.2 1301C471.3 1301 428.7 1301 385.8 1301C343 1301 300 1301 257.2 1301C214.3 1301 171.7 1301 128.8 1301C86 1301 43 1301 21.5 1301L0 1301Z" fill="#505fe5"></path><path d="M0 1130L21.5 1104.5C43 1079 86 1028 128.8 1018.7C171.7 1009.3 214.3 1041.7 257.2 1053.5C300 1065.3 343 1056.7 385.8 1075.7C428.7 1094.7 471.3 1141.3 514.2 1140.3C557 1139.3 600 1090.7 642.8 1072.3C685.7 1054 728.3 1066 771.2 1054.8C814 1043.7 857 1009.3 878.5 992.2L900 975L900 1301L878.5 1301C857 1301 814 1301 771.2 1301C728.3 1301 685.7 1301 642.8 1301C600 1301 557 1301 514.2 1301C471.3 1301 428.7 1301 385.8 1301C343 1301 300 1301 257.2 1301C214.3 1301 171.7 1301 128.8 1301C86 1301 43 1301 21.5 1301L0 1301Z" fill="#4169e1"></path></svg>