<svg id="visual" viewBox="0 0 900 1100" width="900" height="1100" xmlns="http://www.w3.org/2000/svg" xmlns:xlink="http://www.w3.org/1999/xlink" version="1.1"><rect x="0" y="0" width="900" height="1100" fill="#27292b"></rect><path d="M0 618L21.5 628C43 638 86 658 128.8 688C171.7 718 214.3 758 257.2 782.8C300 807.7 343 817.3 385.8 776.5C428.7 735.7 471.3 644.3 514.2 644.2C557 644 600 735 642.8 734.5C685.7 734 728.3 642 771.2 631.7C814 621.3 857 692.7 878.5 728.3L900 764L900 0L878.5 0C857 0 814 0 771.2 0C728.3 0 685.7 0 642.8 0C600 0 557 0 514.2 0C471.3 0 428.7 0 385.8 0C343 0 300 0 257.2 0C214.3 0 171.7 0 128.8 0C86 0 43 0 21.5 0L0 0Z" fill="#8a2be2"></path><path d="M0 637L21.5 605.2C43 573.3 86 509.7 128.8 487.8C171.7 466 214.3 486 257.2 510.5C300 535 343 564 385.8 559.8C428.7 555.7 471.3 518.3 514.2 512.3C557 506.3 600 531.7 642.8 551.5C685.7 571.3 728.3 585.7 771.2 616.2C814 646.7 857 693.3 878.5 716.7L900 740L900 0L878.5 0C857 0 814 0 771.2 0C728.3 0 685.7 0 642.8 0C600 0 557 0 514.2 0C471.3 0 428.7 0 385.8 0C343 0 300 0 257.2 0C214.3 0 171.7 0 128.8 0C86 0 43 0 21.5 0L0 0Z" fill="#7643e5"></path><path d="M0 475L21.5 455.2C43 435.3 86 395.7 128.8 381.7C171.7 367.7 214.3 379.3 257.2 383.7C300 388 343 385 385.8 393.3C428.7 401.7 471.3 421.3 514.2 416C557 410.7 600 380.3 642.8 364.5C685.7 348.7 728.3 347.3 771.2 348C814 348.7 857 351.3 878.5 352.7L900 354L900 0L878.5 0C857 0 814 0 771.2 0C728.3 0 685.7 0 642.8 0C600 0 557 0 514.2 0C471.3 0 428.7 0 385.8 0C343 0 300 0 257.2 0C214.3 0 171.7 0 128.8 0C86 0 43 0 21.5 0L0 0Z" fill="#6253e6"></path><path d="M0 253L21.5 268.8C43 284.7 86 316.3 128.8 311.3C171.7 306.3 214.3 264.7 257.2 258.3C300 252 343 281 385.8 298.5C428.7 316 471.3 322 514.2 338.5C557 355 600 382 642.8 397.5C685.7 413 728.3 417 771.2 393.7C814 370.3 857 319.7 878.5 294.3L900 269L900 0L878.5 0C857 0 814 0 771.2 0C728.3 0 685.7 0 642.8 0C600 0 557 0 514.2 0C471.3 0 428.7 0 385.8 0C343 0 300 0 257.2 0C214.3 0 171.7 0 128.8 0C86 0 43 0 21.5 0L0 0Z" fill="#505fe5"></path><path d="M0 142L21.5 163.5C43 185 86 228 128.8 235.8C171.7 243.7 214.3 216.3 257.2 206.3C300 196.3 343 203.7 385.8 187.7C428.7 171.7 471.3 132.3 514.2 133.2C557 134 600 175 642.8 190.5C685.7 206 728.3 196 771.2 205.7C814 215.3 857 244.7 878.5 259.3L900 274L900 0L878.5 0C857 0 814 0 771.2 0C728.3 0 685.7 0 642.8 0C600 0 557 0 514.2 0C471.3 0 428.7 0 385.8 0C343 0 300 0 257.2 0C214.3 0 171.7 0 128.8 0C86 0 43 0 21.5 0L0 0Z" fill="#4169e1"></path></svg>